# xmcd
# Track frame offsets:
# 150
# 14911
# 31974
#
# Disc length: 755 seconds
# Revision: 0
# Processed by: cddbd v1.4PL0 Copyright (c) Steve Scherf et al.
# Submitted via: VisiTrax 2.9.5.181 - For more info visit www.synapsa.com
#
DISCID=2002f103
DTITLE=The Blue Junction - Demo
DYEAR=2002
DGENRE=Blues
TTITLE0=The Good Things Are To See
TTITLE1=Another Zip-code
TTITLE2=Why Are You Stayin
EXTD=
EXTT0=
EXTT1=
EXTT2=
PLAYORDER=
